<svg width="40" height="40" viewBox="0 0 40 40" fill="none" xmlns="http://www.w3.org/2000/svg">
<path d="M40 40L13 40C5.82031 40 8.13822e-06 34.1797 8.76589e-06 27L1.11263e-05 -3.49691e-06L27 -1.1365e-06C34.1797 -5.08827e-07 40 5.8203 40 13L40 40Z" fill="#F5F5F5" fill-opacity="0.5"/>
<path d="M27.4073 20L28.8216 21.4142L30.2358 20L28.8216 18.5858L27.4073 20ZM20.9931 16.4142L25.9931 21.4142L28.8216 18.5858L23.8216 13.5858L20.9931 16.4142ZM25.9931 18.5858L20.9931 23.5858L23.8216 26.4142L28.8216 21.4142L25.9931 18.5858Z" fill="#444444"/>
<path d="M17.4073 20L18.8216 21.4142L20.2358 20L18.8216 18.5858L17.4073 20ZM10.9931 16.4142L15.9931 21.4142L18.8216 18.5858L13.8216 13.5858L10.9931 16.4142ZM15.9931 18.5858L10.9931 23.5858L13.8216 26.4142L18.8216 21.4142L15.9931 18.5858Z" fill="#444444"/>
</svg>
