<svg width="41" height="35" viewBox="0 0 41 35" fill="none" xmlns="http://www.w3.org/2000/svg">
<path d="M20.5 19.7288L19.5261 20.8696L20.5 21.701L21.4739 20.8696L20.5 19.7288ZM14.4011 16.4946L19.5261 20.8696L21.4739 18.5879L16.3489 14.2129L14.4011 16.4946ZM21.4739 20.8696L26.5989 16.4946L24.6511 14.2129L19.5261 18.5879L21.4739 20.8696Z" fill="#F5F5F5"/>
<path d="M20.5 28.4375L19.5261 29.5783L20.5 30.4097L21.4739 29.5783L20.5 28.4375ZM14.4011 25.2033L19.5261 29.5783L21.4739 27.2967L16.3489 22.9217L14.4011 25.2033ZM21.4739 29.5783L26.5989 25.2033L24.6511 22.9217L19.5261 27.2967L21.4739 29.5783Z" fill="#F5F5F5"/>
<path d="M20.5 10.9788L19.5261 12.1196L20.5 12.951L21.4739 12.1196L20.5 10.9788ZM14.4011 7.74461L19.5261 12.1196L21.4739 9.83791L16.3489 5.46291L14.4011 7.74461ZM21.4739 12.1196L26.5989 7.74461L24.6511 5.46291L19.5261 9.83791L21.4739 12.1196Z" fill="#F5F5F5"/>
</svg>
