<svg width="49" height="49" viewBox="0 0 49 49" fill="none" xmlns="http://www.w3.org/2000/svg">
<path d="M27.6055 24.4063L28.6644 25.4687L29.7303 24.4063L28.6644 23.3439L27.6055 24.4063ZM22.5427 31.5703L28.6644 25.4687L26.5466 23.3439L20.4249 29.4455L22.5427 31.5703ZM28.6644 23.3439L22.5427 17.2423L20.4249 19.3671L26.5466 25.4687L28.6644 23.3439Z" fill="#444444"/>
<path d="M39.7912 24.4063L40.8501 25.4687L41.916 24.4063L40.8501 23.3439L39.7912 24.4063ZM34.7283 31.5703L40.8501 25.4687L38.7322 23.3439L32.6105 29.4455L34.7283 31.5703ZM40.8501 23.3439L34.7283 17.2423L32.6105 19.3671L38.7322 25.4687L40.8501 23.3439Z" fill="#444444"/>
<path d="M15.3621 24.4063L16.421 25.4687L17.4869 24.4063L16.421 23.3439L15.3621 24.4063ZM10.2993 31.5703L16.421 25.4687L14.3032 23.3439L8.18145 29.4455L10.2993 31.5703ZM16.421 23.3439L10.2993 17.2423L8.18144 19.3671L14.3032 25.4687L16.421 23.3439Z" fill="#444444"/>
</svg>
