<svg width="351" height="65" viewBox="0 0 351 65" fill="none" xmlns="http://www.w3.org/2000/svg">
<path d="M0 1.60471V12.7918C0 16.5056 1.05809 17.9727 3.49628 18.6146L10.7189 20.4944C12.099 20.8612 12.237 21.5948 12.237 23.1995V29.8934C11.777 29.9851 11.2709 30.0768 10.6269 30.0768C8.83272 30.0768 8.5567 28.9306 8.5567 27.0508V22.5576H0V26.9591C0 33.4696 4.04833 34.9826 10.4429 34.9826C12.513 34.9826 17.8035 34.2949 20.7937 33.3779V21.0904C20.7937 16.4597 18.5395 15.2676 16.6994 14.8092L10.0288 13.1127C8.92473 12.8377 8.5567 12.2416 8.5567 11.0037V5.08921C9.01674 4.99752 9.52278 4.90582 10.1668 4.90582C11.961 4.90582 12.237 6.05204 12.237 7.93184V11.0954H20.7937V8.02354C20.7937 1.51301 16.7454 0 10.3508 0C8.28068 0 2.99024 0.687731 0 1.60471Z" fill="#444444"/>
<path d="M42.0474 34.9826C44.1176 34.9826 49.408 34.2949 52.3983 33.3779V8.02354C52.3983 1.51301 48.3499 0 41.9554 0C39.8853 0 34.5948 0.687731 31.6046 1.60471V26.9591C31.6046 33.4696 35.6529 34.9826 42.0474 34.9826ZM41.7714 4.95167C43.5656 4.95167 43.8416 6.09789 43.8416 7.97769V29.8476C43.3815 29.9392 42.8755 30.0309 42.2314 30.0309C40.4373 30.0309 40.1613 28.8847 40.1613 27.0049V5.13506C40.6213 5.04337 41.1274 4.95167 41.7714 4.95167Z" fill="#444444"/>
<path d="M63.6541 34.4324H79.2494V29.3432H72.2108V0.550186H63.6541V34.4324Z" fill="#444444"/>
<path d="M89.0065 0.550186V34.4324H105.844V29.3432H97.5632V19.4857H104.832V14.3965H97.5632V5.6394H105.844V0.550186H89.0065Z" fill="#444444"/>
<path d="M129.727 1.60471V12.7918C129.727 16.5056 130.785 17.9727 133.223 18.6146L140.446 20.4944C141.826 20.8612 141.964 21.5948 141.964 23.1995V29.8934C141.504 29.9851 140.998 30.0768 140.354 30.0768C138.56 30.0768 138.284 28.9306 138.284 27.0508V22.5576H129.727V26.9591C129.727 33.4696 133.775 34.9826 140.17 34.9826C142.24 34.9826 147.53 34.2949 150.521 33.3779V21.0904C150.521 16.4597 148.266 15.2676 146.426 14.8092L139.756 13.1127C138.652 12.8377 138.284 12.2416 138.284 11.0037V5.08921C138.744 4.99752 139.25 4.90582 139.894 4.90582C141.688 4.90582 141.964 6.05204 141.964 7.93184V11.0954H150.521V8.02354C150.521 1.51301 146.472 0 140.078 0C138.008 0 132.717 0.687731 129.727 1.60471Z" fill="#444444"/>
<path d="M171.774 34.9826C173.845 34.9826 179.135 34.2949 182.125 33.3779V8.02354C182.125 1.51301 178.077 0 171.682 0C169.612 0 164.322 0.687731 161.332 1.60471V26.9591C161.332 33.4696 165.38 34.9826 171.774 34.9826ZM171.498 4.95167C173.293 4.95167 173.569 6.09789 173.569 7.97769V29.8476C173.109 29.9392 172.602 30.0309 171.958 30.0309C170.164 30.0309 169.888 28.8847 169.888 27.0049V5.13506C170.348 5.04337 170.854 4.95167 171.498 4.95167Z" fill="#444444"/>
<path d="M193.381 34.4324H208.976V29.3432H201.938V0.550186H193.381V34.4324Z" fill="#444444"/>
<path d="M229.084 34.7992C231.154 34.7992 236.445 34.1115 239.435 33.1945V0.550186H230.878V29.6642C230.418 29.7559 229.912 29.8476 229.268 29.8476C227.474 29.8476 227.198 28.7013 227.198 26.8215V0.550186H218.641V26.7757C218.641 33.2862 222.69 34.7992 229.084 34.7992Z" fill="#444444"/>
<path d="M249.261 5.6394H254.827V34.4324H263.384V5.6394H268.49V0.550186H249.261V5.6394Z" fill="#444444"/>
<path d="M278.333 34.4324H286.89V0.550186H278.333V34.4324Z" fill="#444444"/>
<path d="M308.6 34.9826C310.67 34.9826 315.96 34.2949 318.95 33.3779V8.02354C318.95 1.51301 314.902 0 308.508 0C306.437 0 301.147 0.687731 298.157 1.60471V26.9591C298.157 33.4696 302.205 34.9826 308.6 34.9826ZM308.324 4.95167C310.118 4.95167 310.394 6.09789 310.394 7.97769V29.8476C309.934 29.9392 309.428 30.0309 308.784 30.0309C306.99 30.0309 306.713 28.8847 306.713 27.0049V5.13506C307.174 5.04337 307.68 4.95167 308.324 4.95167Z" fill="#444444"/>
<path d="M330.206 1.60471V34.4324H338.763V5.13506C339.223 5.04337 339.729 4.95167 340.373 4.95167C342.167 4.95167 342.443 6.09789 342.443 7.97769V34.4324H351V8.02354C351 1.51301 346.952 0 340.557 0C338.487 0 333.197 0.687731 330.206 1.60471Z" fill="#444444"/>
<path d="M6.42238 59.1262L5.5671 57.4214H5.48935L5.73816 59.1262V64.783H3.71658V53.8568H5.27164L9.39254 59.6376L10.2167 61.2959H10.2945L10.0457 59.6376V53.9343H12.0672V64.8605H10.5122L6.42238 59.1262Z" fill="#444444"/>
<path d="M20.1571 53.9343H26.6105V55.8251H22.2875V58.3513H26.2218V60.2421H22.2875V62.8922H26.6883V64.783H20.1571V53.9343Z" fill="#444444"/>
<path d="M37.332 59.9941L37.5342 61.9159H37.5964L37.8141 59.9631L39.7113 53.9343H41.1108L42.9769 59.9941L43.1946 61.9159H43.2568L43.4901 59.9631L44.8119 53.9343H46.9734L43.9721 64.8605H42.5415L40.5977 58.8317L40.3333 57.1734H40.2556L39.9912 58.8472L38.0629 64.8605H36.5545L33.5688 53.9343H35.8858L37.332 59.9941Z" fill="#444444"/>
<path d="M68.5559 61.8694C68.5559 61.5387 68.4315 61.2701 68.1827 61.0635C67.9442 60.8568 67.6384 60.6708 67.2652 60.5055C66.9023 60.3299 66.5032 60.1542 66.0678 59.9786C65.6427 59.7926 65.2436 59.5705 64.8704 59.3122C64.5075 59.0435 64.2017 58.7129 63.9529 58.3203C63.7145 57.9277 63.5952 57.4266 63.5952 56.817C63.5952 56.29 63.6834 55.8354 63.8596 55.4531C64.0358 55.0605 64.2847 54.735 64.606 54.4767C64.9378 54.2184 65.3265 54.0273 65.7723 53.9033C66.2181 53.7793 66.7157 53.7173 67.2652 53.7173C67.8976 53.7173 68.4937 53.7742 69.0535 53.8878C69.6133 53.9911 70.0746 54.1461 70.4375 54.3527L69.7688 56.135C69.5407 55.9904 69.1986 55.8612 68.7425 55.7476C68.2863 55.6236 67.7939 55.5616 67.2652 55.5616C66.7676 55.5616 66.384 55.6598 66.1144 55.8561C65.8553 56.0524 65.7257 56.3158 65.7257 56.6465C65.7257 56.9564 65.8449 57.2147 66.0833 57.4214C66.3321 57.628 66.638 57.8192 67.0008 57.9948C67.374 58.1705 67.7732 58.3513 68.1982 58.5373C68.6336 58.7232 69.0328 58.9505 69.3956 59.2192C69.7688 59.4775 70.0746 59.8029 70.3131 60.1956C70.5619 60.5779 70.6863 61.0583 70.6863 61.6369C70.6863 62.2155 70.5878 62.7166 70.3908 63.1402C70.2042 63.5535 69.9347 63.8996 69.5822 64.1786C69.2401 64.4576 68.8202 64.6642 68.3226 64.7985C67.8354 64.9328 67.2963 65 66.7054 65C65.9278 65 65.2436 64.9277 64.6527 64.783C64.0618 64.6384 63.6263 64.4937 63.3464 64.3491L64.0307 62.5358C64.1447 62.5978 64.2898 62.6649 64.4661 62.7373C64.6527 62.8096 64.86 62.8767 65.0881 62.9387C65.3162 63.0007 65.5546 63.0524 65.8034 63.0937C66.0626 63.135 66.327 63.1557 66.5965 63.1557C67.2289 63.1557 67.711 63.0524 68.0427 62.8458C68.3848 62.6288 68.5559 62.3033 68.5559 61.8694Z" fill="#444444"/>
<path d="M81.0317 59.1262L80.1764 57.4214H80.0986L80.3475 59.1262V64.783H78.3259V53.8568H79.8809L84.0018 59.6376L84.826 61.2959H84.9038L84.655 59.6376V53.9343H86.6765V64.8605H85.1215L81.0317 59.1262Z" fill="#444444"/>
<path d="M94.7663 53.9343H101.22V55.8251H96.8968V58.3513H100.831V60.2421H96.8968V62.8922H101.298V64.783H94.7663V53.9343Z" fill="#444444"/>
<path d="M114.476 62.3808H111.133L110.309 64.783H108.178L112.097 53.8568H113.667L117.586 64.783H115.347L114.476 62.3808ZM111.677 60.676H114.01L113.201 58.2583L112.874 56.5535H112.797L112.47 58.2738L111.677 60.676Z" fill="#444444"/>
<path d="M127.437 60.1491H126.877V64.783H124.747V53.9343H126.877V58.7387L127.375 58.5218L130.376 53.9343H132.802L129.63 58.4908L128.79 59.0797L129.661 59.6841L133.284 64.783H130.656L127.437 60.1491Z" fill="#444444"/>
<path d="M140.61 53.9343H147.064V55.8251H142.741V58.3513H146.675V60.2421H142.741V62.8922H147.141V64.783H140.61V53.9343Z" fill="#444444"/>
<path d="M154.955 54.0428C155.193 54.0015 155.447 53.9653 155.717 53.9343C155.997 53.893 156.272 53.862 156.541 53.8413C156.821 53.8206 157.091 53.8051 157.35 53.7948C157.609 53.7845 157.847 53.7793 158.065 53.7793C158.573 53.7793 159.071 53.8258 159.558 53.9188C160.056 54.0118 160.496 54.1719 160.88 54.3992C161.274 54.6266 161.585 54.9417 161.813 55.3446C162.051 55.7373 162.17 56.2332 162.17 56.8325C162.17 57.721 161.963 58.4443 161.548 59.0022C161.134 59.5601 160.579 59.9476 159.884 60.1646L160.646 60.645L163.135 64.783H160.678L158.205 60.5365L157.085 60.335V64.783H154.955V54.0428ZM158.221 55.6701C158.003 55.6701 157.785 55.6753 157.567 55.6856C157.36 55.6959 157.199 55.7166 157.085 55.7476V58.8937H157.987C158.578 58.8937 159.05 58.7594 159.402 58.4908C159.755 58.2221 159.931 57.7778 159.931 57.1579C159.931 56.693 159.786 56.3313 159.496 56.073C159.205 55.8044 158.78 55.6701 158.221 55.6701Z" fill="#444444"/>
<path d="M180.683 53.9343H187.137V55.8251H182.814V58.5063H186.795V60.397H182.814V64.783H180.683V53.9343Z" fill="#444444"/>
<path d="M194.8 54.0428C195.039 54.0015 195.293 53.9653 195.562 53.9343C195.842 53.893 196.117 53.862 196.386 53.8413C196.666 53.8206 196.936 53.8051 197.195 53.7948C197.454 53.7845 197.693 53.7793 197.91 53.7793C198.418 53.7793 198.916 53.8258 199.403 53.9188C199.901 54.0118 200.341 54.1719 200.725 54.3992C201.119 54.6266 201.43 54.9417 201.658 55.3446C201.896 55.7373 202.016 56.2332 202.016 56.8325C202.016 57.721 201.808 58.4443 201.394 59.0022C200.979 59.5601 200.424 59.9476 199.73 60.1646L200.492 60.645L202.98 64.783H200.523L198.05 60.5365L196.931 60.335V64.783H194.8V54.0428ZM198.066 55.6701C197.848 55.6701 197.63 55.6753 197.413 55.6856C197.205 55.6959 197.045 55.7166 196.931 55.7476V58.8937H197.833C198.424 58.8937 198.895 58.7594 199.248 58.4908C199.6 58.2221 199.776 57.7778 199.776 57.1579C199.776 56.693 199.631 56.3313 199.341 56.073C199.051 55.8044 198.626 55.6701 198.066 55.6701Z" fill="#444444"/>
<path d="M209.517 59.3587C209.517 57.5505 209.916 56.1609 210.714 55.1897C211.512 54.2081 212.653 53.7173 214.135 53.7173C214.913 53.7173 215.592 53.8516 216.172 54.1203C216.753 54.3889 217.235 54.7712 217.618 55.2671C218.002 55.7631 218.287 56.3572 218.474 57.0494C218.66 57.7417 218.754 58.5114 218.754 59.3587C218.754 61.1668 218.349 62.5616 217.541 63.5432C216.742 64.5144 215.607 65 214.135 65C213.347 65 212.663 64.8657 212.082 64.597C211.502 64.3284 211.02 63.9461 210.636 63.4502C210.263 62.9542 209.983 62.3601 209.797 61.6679C209.61 60.9756 209.517 60.2059 209.517 59.3587ZM211.756 59.3587C211.756 59.9063 211.803 60.4125 211.896 60.8775C211.989 61.3321 212.129 61.7247 212.316 62.0553C212.513 62.386 212.762 62.6443 213.062 62.8303C213.363 63.0162 213.72 63.1092 214.135 63.1092C214.892 63.1092 215.478 62.8148 215.892 62.2258C216.307 61.6369 216.514 60.6812 216.514 59.3587C216.514 58.8317 216.468 58.341 216.374 57.8863C216.291 57.4317 216.157 57.0339 215.97 56.693C215.784 56.352 215.54 56.0885 215.239 55.9026C214.939 55.7063 214.571 55.6081 214.135 55.6081C213.378 55.6081 212.793 55.9129 212.378 56.5225C211.963 57.1218 211.756 58.0671 211.756 59.3587Z" fill="#444444"/>
<path d="M229.202 59.1262L228.347 57.4214H228.269L228.518 59.1262V64.783H226.497V53.8568H228.052L232.173 59.6376L232.997 61.2959H233.075L232.826 59.6376V53.9343H234.847V64.8605H233.292L229.202 59.1262Z" fill="#444444"/>
<path d="M250.666 55.8251H247.493V64.783H245.363V55.8251H242.175V53.9343H250.666V55.8251Z" fill="#444444"/>
<path d="M257.996 53.9343H264.449V55.8251H260.126V58.3513H264.06V60.2421H260.126V62.8922H264.527V64.783H257.996V53.9343Z" fill="#444444"/>
<path d="M272.34 53.9343H278.794V55.8251H274.471V58.3513H278.405V60.2421H274.471V62.8922H278.872V64.783H272.34V53.9343Z" fill="#444444"/>
<path d="M286.685 54.0428C286.924 54.0015 287.178 53.9653 287.447 53.9343C287.727 53.893 288.002 53.862 288.271 53.8413C288.551 53.8206 288.821 53.8051 289.08 53.7948C289.339 53.7845 289.578 53.7793 289.795 53.7793C290.303 53.7793 290.801 53.8258 291.288 53.9188C291.786 54.0118 292.226 54.1719 292.61 54.3992C293.004 54.6266 293.315 54.9417 293.543 55.3446C293.781 55.7373 293.901 56.2332 293.901 56.8325C293.901 57.721 293.693 58.4443 293.279 59.0022C292.864 59.5601 292.309 59.9476 291.615 60.1646L292.377 60.645L294.865 64.783H292.408L289.935 60.5365L288.816 60.335V64.783H286.685V54.0428ZM289.951 55.6701C289.733 55.6701 289.515 55.6753 289.298 55.6856C289.09 55.6959 288.93 55.7166 288.816 55.7476V58.8937H289.718C290.309 58.8937 290.78 58.7594 291.133 58.4908C291.485 58.2221 291.661 57.7778 291.661 57.1579C291.661 56.693 291.516 56.3313 291.226 56.073C290.936 55.8044 290.511 55.6701 289.951 55.6701Z" fill="#444444"/>
</svg>
