<svg width="83" height="84" viewBox="0 0 83 84" fill="none" xmlns="http://www.w3.org/2000/svg">
<path d="M26.9167 28.0104H30.1979L35.3021 49.5209H51.3437" stroke="#444444" stroke-width="3" stroke-linecap="round" stroke-linejoin="round"/>
<path d="M39.9062 53.8958C39.9062 54.8278 39.1507 55.5833 38.2188 55.5833C37.2868 55.5833 36.5312 54.8278 36.5312 53.8958C36.5312 52.9638 37.2868 52.2083 38.2188 52.2083C39.1507 52.2083 39.9062 52.9638 39.9062 53.8958Z" fill="#444444" stroke="#444444"/>
<path d="M49.3854 53.8958C49.3854 54.8278 48.6299 55.5833 47.6979 55.5833C46.7659 55.5833 46.0104 54.8278 46.0104 53.8958C46.0104 52.9638 46.7659 52.2083 47.6979 52.2083C48.6299 52.2083 49.3854 52.9638 49.3854 53.8958Z" fill="#444444" stroke="#444444"/>
<mask id="path-4-inside-1_146_335" fill="white">
<path d="M31.6562 32.75H55.7744C56.8001 32.75 57.5054 33.7809 57.1336 34.7369L53.1637 44.9452C52.9457 45.5057 52.4059 45.875 51.8045 45.875H34.5729L31.6562 32.75Z"/>
</mask>
<path d="M31.6562 32.75H55.7744C56.8001 32.75 57.5054 33.7809 57.1336 34.7369L53.1637 44.9452C52.9457 45.5057 52.4059 45.875 51.8045 45.875H34.5729L31.6562 32.75Z" fill="#444444"/>
<path d="M31.6562 32.75V31.75H30.4096L30.6801 32.9669L31.6562 32.75ZM57.1336 34.7369L56.2016 34.3744L56.2015 34.3745L57.1336 34.7369ZM53.1637 44.9452L54.0957 45.3077L54.0957 45.3077L53.1637 44.9452ZM34.5729 45.875L33.5967 46.0919L33.7707 46.875H34.5729V45.875ZM31.6562 33.75H55.7744V31.75H31.6562V33.75ZM55.7744 33.75C56.0968 33.75 56.3184 34.074 56.2016 34.3744L58.0656 35.0994C58.6923 33.4878 57.5034 31.75 55.7744 31.75V33.75ZM56.2015 34.3745L52.2317 44.5828L54.0957 45.3077L58.0656 35.0994L56.2015 34.3745ZM52.2317 44.5827C52.1631 44.759 51.9935 44.875 51.8045 44.875V46.875C52.8184 46.875 53.7282 46.2525 54.0957 45.3077L52.2317 44.5827ZM51.8045 44.875H34.5729V46.875H51.8045V44.875ZM35.5491 45.6581L32.6324 32.5331L30.6801 32.9669L33.5967 46.0919L35.5491 45.6581Z" fill="#444444" mask="url(#path-4-inside-1_146_335)"/>
</svg>
