<svg width="40" height="40" viewBox="0 0 40 40" fill="none" xmlns="http://www.w3.org/2000/svg">
<path d="M0 0H27C34.1797 0 40 5.8203 40 13V40H13C5.8203 40 0 34.1797 0 27V0Z" fill="#F5F5F5" fill-opacity="0.5"/>
<path d="M12.5925 20L11.1783 18.5858L9.7641 20L11.1783 21.4142L12.5925 20ZM19.0067 23.5858L14.0067 18.5858L11.1783 21.4142L16.1783 26.4142L19.0067 23.5858ZM14.0067 21.4142L19.0067 16.4142L16.1783 13.5858L11.1783 18.5858L14.0067 21.4142Z" fill="#444444"/>
<path d="M22.5925 20L21.1783 18.5858L19.7641 20L21.1783 21.4142L22.5925 20ZM29.0067 23.5858L24.0067 18.5858L21.1783 21.4142L26.1783 26.4142L29.0067 23.5858ZM24.0067 21.4142L29.0067 16.4142L26.1783 13.5858L21.1783 18.5858L24.0067 21.4142Z" fill="#444444"/>
</svg>
