<svg width="14" height="14" viewBox="0 0 14 14" fill="none" xmlns="http://www.w3.org/2000/svg">
<path d="M3.06161 1.32896C2.47635 0.742651 1.5266 0.741801 0.940289 1.32706C0.353979 1.91233 0.353129 2.86207 0.938392 3.44838L3.06161 1.32896ZM10.9384 13.4663C11.5237 14.0526 12.4734 14.0534 13.0597 13.4682C13.646 12.8829 13.6469 11.9332 13.0616 11.3469L10.9384 13.4663ZM0.938392 3.44838L10.9384 13.4663L13.0616 11.3469L3.06161 1.32896L0.938392 3.44838Z" fill="#444444"/>
<path d="M0.938392 11.347C0.353129 11.9333 0.353979 12.8831 0.940289 13.4683C1.5266 14.0536 2.47635 14.0528 3.06161 13.4664L0.938392 11.347ZM13.0616 3.44854C13.6469 2.86223 13.646 1.91249 13.0597 1.32723C12.4734 0.741963 11.5237 0.742813 10.9384 1.32912L13.0616 3.44854ZM3.06161 13.4664L13.0616 3.44854L10.9384 1.32912L0.938392 11.347L3.06161 13.4664Z" fill="#444444"/>
</svg>
