<svg width="83" height="84" viewBox="0 0 83 84" fill="none" xmlns="http://www.w3.org/2000/svg">
<path d="M33.1679 46.4965C33.9482 47.2783 35.2145 47.2794 35.9963 46.499C36.778 45.7187 36.7792 44.4524 35.9988 43.6706L33.1679 46.4965ZM27.6667 38.1545L26.2512 36.7416C25.4718 37.5223 25.4718 38.7867 26.2512 39.5675L27.6667 38.1545ZM35.9988 32.6384C36.7792 31.8567 36.778 30.5903 35.9963 29.81C35.2145 29.0296 33.9482 29.0308 33.1679 29.8125L35.9988 32.6384ZM35.9988 43.6706L29.0822 36.7416L26.2512 39.5675L33.1679 46.4965L35.9988 43.6706ZM29.0822 39.5675L35.9988 32.6384L33.1679 29.8125L26.2512 36.7416L29.0822 39.5675Z" fill="#444444"/>
<path d="M39.963 50.0126C38.8584 50.0126 37.963 50.9081 37.963 52.0126C37.963 53.1172 38.8584 54.0126 39.963 54.0126V50.0126ZM27.6667 36.1545C26.5621 36.1545 25.6667 37.05 25.6667 38.1545C25.6667 39.2591 26.5621 40.1545 27.6667 40.1545V36.1545ZM39.963 54.0126H47.6482V50.0126H39.963V54.0126ZM47.6482 36.1545H27.6667V40.1545H47.6482V36.1545ZM57.3334 45.0836C57.3334 39.9624 52.7972 36.1545 47.6482 36.1545V40.1545C50.9879 40.1545 53.3334 42.5512 53.3334 45.0836H57.3334ZM47.6482 54.0126C52.7973 54.0126 57.3334 50.2048 57.3334 45.0836H53.3334C53.3334 47.616 50.9879 50.0126 47.6482 50.0126V54.0126Z" fill="#444444"/>
</svg>
