<svg width="49" height="50" viewBox="0 0 49 50" fill="none" xmlns="http://www.w3.org/2000/svg">
<path d="M21.368 25.3973L20.3091 24.3349L19.2432 25.3973L20.3091 26.4597L21.368 25.3973ZM26.4308 18.2333L20.3091 24.3349L22.4269 26.4597L28.5487 20.3581L26.4308 18.2333ZM20.3091 26.4597L26.4308 32.5613L28.5487 30.4365L22.4269 24.3349L20.3091 26.4597Z" fill="#444444"/>
<path d="M9.18248 25.3973L8.12357 24.3349L7.05766 25.3973L8.12357 26.4597L9.18248 25.3973ZM14.2453 18.2333L8.12357 24.3349L10.2414 26.4597L16.3631 20.3581L14.2453 18.2333ZM8.12357 26.4597L14.2453 32.5613L16.3631 30.4365L10.2414 24.3349L8.12357 26.4597Z" fill="#444444"/>
<path d="M33.6117 25.3973L32.5528 24.3349L31.4869 25.3973L32.5528 26.4597L33.6117 25.3973ZM38.6745 18.2333L32.5528 24.3349L34.6706 26.4597L40.7923 20.3581L38.6745 18.2333ZM32.5528 26.4597L38.6745 32.5613L40.7923 30.4365L34.6706 24.3349L32.5528 26.4597Z" fill="#444444"/>
</svg>
